<?xml version="1.0" standalone="no"?>
<!DOCTYPE svg PUBLIC "-//W3C//DTD SVG 20010904//EN"
 "http://www.w3.org/TR/2001/REC-SVG-20010904/DTD/svg10.dtd">
<svg version="1.0" xmlns="http://www.w3.org/2000/svg"
 width="512.000000pt" height="512.000000pt" viewBox="0 0 512.000000 512.000000"
 preserveAspectRatio="xMidYMid meet">
<metadata>
Created by potrace 1.14, written by Peter Selinger 2001-2017
</metadata>
<g transform="translate(0.000000,512.000000) scale(0.100000,-0.100000)"
fill="#000000" stroke="none">
<path d="M2417 4555 c5 -66 3 -73 -27 -117 -38 -58 -107 -120 -158 -143 -301
-139 -383 -199 -444 -323 -29 -59 -33 -76 -33 -152 0 -47 4 -98 8 -113 8 -28
7 -29 -22 -22 -79 17 -234 -46 -301 -123 -66 -74 -85 -124 -85 -226 -1 -75 -4
-90 -20 -102 -24 -18 -79 -17 -130 1 -21 8 -41 12 -44 9 -2 -2 3 -20 12 -40
13 -26 16 -48 11 -85 -14 -106 47 -206 141 -231 41 -11 43 -13 29 -29 -21 -23
-10 -43 17 -29 17 9 19 7 19 -18 0 -92 63 -188 149 -227 33 -15 43 -26 56 -64
8 -25 27 -66 41 -90 14 -25 39 -78 55 -118 32 -77 45 -88 54 -50 6 22 9 23 51
13 24 -6 44 -15 44 -21 0 -6 16 -44 35 -84 42 -87 124 -172 217 -224 49 -27
57 -36 42 -40 -60 -18 -217 -57 -269 -68 -55 -10 -65 -17 -130 -83 -79 -81
-150 -195 -202 -324 -41 -101 -83 -182 -95 -182 -4 0 -8 -8 -8 -17 0 -10 -9
-29 -20 -43 -22 -29 -25 -58 -9 -94 12 -27 -13 -178 -68 -408 -17 -74 -23
-119 -18 -146 l6 -40 -58 14 c-66 16 -223 19 -223 5 0 -18 23 -24 89 -23 36 1
82 -3 101 -8 l35 -10 -41 5 c-23 3 -62 2 -88 -1 l-45 -7 22 -17 c59 -47 235
-149 352 -206 390 -187 880 -281 1275 -245 252 23 374 51 700 157 154 51 464
213 561 293 l24 20 -65 2 -65 2 89 11 c54 7 91 16 94 24 6 18 -94 16 -196 -4
-45 -9 -85 -14 -88 -11 -3 3 0 24 6 47 13 47 10 68 -25 155 -13 33 -28 94 -34
135 -36 254 -35 239 -17 259 9 9 16 27 16 38 0 20 -39 78 -80 119 -11 12 -41
79 -66 149 -72 205 -156 336 -249 391 -38 22 -147 56 -310 96 -22 5 -47 12
-55 15 -9 2 8 16 45 36 72 39 173 135 206 197 13 25 31 45 39 45 10 0 20 20
30 63 12 51 19 64 38 69 12 3 29 0 36 -6 16 -13 20 -9 30 34 7 27 9 28 20 12
7 -9 18 -17 24 -17 15 0 24 34 17 62 -4 14 2 42 14 68 14 31 21 66 21 112 0
38 5 70 11 74 6 3 22 30 34 59 17 37 31 54 48 59 36 9 87 60 87 88 1 15 12 30
33 43 19 12 35 33 42 55 5 19 15 43 21 53 8 14 7 39 -3 95 -12 69 -11 78 3 89
12 9 15 21 11 43 -7 30 -7 30 18 14 l25 -16 0 46 c0 63 -20 106 -78 169 -27
28 -70 92 -97 142 -59 110 -113 169 -201 220 -61 36 -64 40 -42 46 38 10 70
29 106 62 35 34 45 74 15 62 -10 -3 -58 -9 -107 -12 l-89 -6 44 44 c59 58 89
124 89 192 0 30 -3 57 -6 60 -4 4 -24 -9 -45 -28 -21 -19 -56 -43 -78 -55 -54
-27 -187 -58 -281 -65 l-75 -6 40 24 c143 88 225 209 212 309 -8 61 -22 67
-46 20 -11 -22 -35 -52 -52 -66 -71 -60 -242 -127 -479 -186 -46 -12 -93 -26
-104 -32 -16 -9 -18 -8 -11 8 17 42 26 87 21 100 -4 12 -18 6 -58 -24 -51 -38
-105 -64 -96 -46 52 108 61 133 65 188 6 71 -15 159 -46 197 l-20 24 6 -70z
m663 -273 c-16 -21 -55 -54 -85 -73 -30 -18 -70 -43 -88 -54 -17 -12 -32 -25
-31 -30 0 -6 -41 -23 -90 -39 -50 -16 -85 -31 -77 -34 16 -5 251 13 386 29
104 13 219 44 273 74 23 13 42 19 42 14 0 -5 -4 -9 -9 -9 -5 0 -12 -9 -16 -20
-3 -11 -25 -38 -48 -61 -23 -23 -34 -39 -24 -35 10 3 25 6 33 6 9 0 13 4 10 8
-2 4 4 14 15 20 43 27 0 -26 -53 -65 -49 -35 -57 -38 -118 -37 -36 1 -85 9
-109 18 -24 9 -46 14 -49 12 -8 -9 73 -76 128 -105 30 -16 96 -44 145 -62 110
-40 181 -85 230 -144 35 -43 35 -45 10 -35 -15 6 -41 21 -58 34 -65 48 -222
109 -315 121 -88 12 -102 16 -102 33 0 8 -10 26 -22 39 -24 25 -48 32 -28 8
21 -25 8 -25 -55 2 -64 26 -198 54 -255 52 -23 -1 -5 -7 54 -20 92 -19 246
-68 246 -78 0 -3 -86 -7 -192 -8 -169 -2 -194 0 -217 16 -53 36 -110 51 -196
51 -91 0 -113 -13 -41 -24 74 -11 193 -52 223 -76 19 -16 21 -21 8 -15 -104
41 -439 68 -440 35 -1 -8 15 -23 35 -32 l35 -17 -67 0 c-42 -1 -88 -9 -120
-21 -31 -12 -54 -16 -56 -10 -6 18 -44 10 -79 -16 -43 -32 -42 -22 2 32 37 45
114 106 129 101 4 -1 21 23 36 53 59 117 132 174 285 225 44 15 87 32 95 38
13 11 13 10 1 -6 -8 -10 -28 -25 -45 -34 -85 -43 -166 -137 -166 -192 0 -31
26 -26 40 8 21 51 97 121 167 153 36 16 127 42 202 58 234 49 315 76 449 148
2 1 -11 -15 -28 -36z m-820 -37 c-22 -19 -59 -44 -80 -56 -22 -12 -36 -27 -33
-32 3 -6 2 -7 -4 -4 -5 3 -22 -5 -37 -18 -16 -14 -33 -22 -39 -18 -6 3 -7 1
-3 -5 7 -11 -7 -17 -29 -12 -5 1 -7 -2 -3 -6 11 -10 -12 -35 -25 -27 -6 3 -7
1 -3 -5 4 -7 2 -12 -4 -12 -6 0 -8 -4 -5 -10 3 -5 -1 -10 -9 -10 -8 0 -22 -7
-30 -16 -9 -8 -16 -12 -16 -7 0 4 -19 -13 -43 -39 -28 -31 -48 -66 -61 -107
-20 -66 -50 -87 -40 -28 19 107 66 192 139 253 39 32 330 189 358 193 5 0 -10
-15 -33 -34z m69 -38 c-2 -1 -13 -9 -24 -17 -19 -14 -19 -14 -6 3 7 9 18 17
24 17 6 0 8 -1 6 -3z m-69 -41 c0 -2 -8 -10 -17 -17 -16 -13 -17 -12 -4 4 13
16 21 21 21 13z m660 -36 c-8 -5 -19 -10 -25 -10 -5 0 -3 5 5 10 8 5 20 10 25
10 6 0 3 -5 -5 -10z m525 -211 c-22 -10 -53 -18 -70 -17 l-30 1 33 4 c19 3 32
10 32 19 0 10 11 14 38 13 l37 -1 -40 -19z m-108 -15 c-3 -3 -12 -4 -19 -1 -8
3 -5 6 6 6 11 1 17 -2 13 -5z m-1063 -213 c3 -5 -18 -12 -46 -16 -60 -8 -112
-27 -123 -45 -6 -10 15 -11 95 -5 113 8 126 -2 40 -30 -28 -9 -64 -28 -80 -42
-17 -14 -30 -19 -30 -13 0 10 -3 10 -15 0 -8 -7 -28 -10 -45 -8 -29 4 -30 3
-30 -34 0 -28 7 -46 25 -63 21 -22 22 -25 5 -25 -28 0 -60 60 -60 112 0 55 37
115 93 152 33 21 53 26 103 26 35 0 65 -4 68 -9z m808 -46 c92 -101 229 -163
335 -152 54 6 73 -8 27 -19 -83 -21 -233 24 -325 98 -36 29 -99 106 -99 122 0
14 15 2 62 -49z m-1318 -14 c14 -5 4 -11 -40 -20 -132 -30 -262 -122 -311
-221 -20 -39 -23 -41 -23 -19 0 37 56 144 92 174 77 65 223 109 282 86z m59
-80 c-3 -22 -3 -51 1 -65 10 -39 63 -94 125 -129 61 -34 54 -48 -12 -22 -61
24 -116 64 -134 99 -20 38 -19 101 2 132 21 33 24 30 18 -15z m1735 -5 c97
-33 171 -92 216 -176 30 -54 30 -81 0 -33 -44 71 -110 125 -216 179 -60 30
-108 57 -108 60 0 3 6 4 13 2 6 -3 49 -17 95 -32z m-734 -188 c33 -21 77 -41
98 -44 47 -8 60 -24 20 -24 -49 0 -145 56 -206 119 -31 33 -56 65 -56 72 0 6
19 -10 42 -36 24 -27 70 -66 102 -87z m-1244 14 c0 -4 -12 -15 -28 -24 -15 -9
-56 -45 -91 -79 -34 -34 -79 -76 -99 -92 l-37 -30 50 8 c55 8 84 20 102 44 7
9 13 12 13 8 2 -66 -150 -100 -240 -54 -53 27 -68 52 -20 36 54 -19 93 -4 171
67 93 86 179 141 179 116z m665 -205 c28 -14 73 -45 100 -69 62 -54 90 -59 99
-16 3 17 6 49 6 72 l0 41 50 -53 c27 -28 52 -52 55 -52 3 0 5 9 5 20 0 13 7
20 20 20 11 0 20 5 20 11 0 6 31 -18 69 -54 88 -83 145 -110 231 -110 62 0 96
9 131 34 12 9 24 6 56 -15 71 -47 139 -47 186 0 l26 26 11 -43 c17 -61 14
-260 -5 -375 -32 -203 -38 -231 -66 -320 -33 -105 -87 -193 -150 -248 -48 -41
-169 -103 -324 -164 -141 -55 -195 -67 -251 -53 -63 16 -230 83 -352 142 -174
84 -252 182 -301 381 -25 105 -58 356 -68 514 l-6 115 45 42 c53 49 88 124 95
207 l5 57 132 -42 c72 -23 154 -54 181 -68z m1219 -594 c-15 -65 -49 -125 -95
-168 -26 -25 -53 -45 -59 -45 -5 0 -10 17 -10 37 0 33 9 46 82 120 46 46 84
83 86 83 1 0 -1 -12 -4 -27z m-1722 -75 c33 -24 64 -53 69 -66 10 -26 12 -82
4 -82 -3 0 -30 15 -59 34 -55 35 -110 102 -122 150 -6 25 -5 26 21 16 15 -6
54 -29 87 -52z m1264 -631 c38 -13 112 -34 164 -47 112 -27 154 -47 196 -92
59 -62 137 -201 204 -360 17 -43 43 -94 56 -113 13 -20 24 -41 24 -47 0 -7 10
-22 21 -34 16 -17 20 -30 15 -49 -8 -31 -81 -107 -125 -129 l-31 -17 0 45 c0
42 3 47 45 76 52 36 60 49 13 20 -53 -32 -58 -28 -52 39 7 60 -7 124 -29 138
-7 5 -68 10 -137 13 l-125 5 -6 45 -6 45 -1 -38 c-1 -22 -6 -36 -12 -32 -10 6
-2 65 11 79 12 13 11 76 -1 76 -5 0 -2 19 6 43 26 73 -10 23 -45 -63 -27 -67
-30 -71 -30 -41 -1 19 6 63 15 98 17 69 14 106 -6 58 -16 -39 -39 -169 -40
-221 l0 -41 -52 -7 c-29 -3 -285 -6 -568 -6 l-516 0 -12 94 c-11 87 -41 188
-62 210 -5 5 0 -19 11 -54 10 -34 21 -87 24 -118 l6 -57 -24 60 c-22 58 -63
137 -53 104 32 -109 46 -160 51 -191 l7 -37 -151 -3 c-192 -4 -193 -5 -201
-139 l-5 -91 -40 27 -40 26 31 -28 c17 -15 39 -32 48 -38 14 -8 17 -21 14 -59
l-3 -49 -62 52 c-34 28 -71 67 -83 86 l-21 35 51 90 c28 50 59 113 70 140 62
157 198 374 259 413 16 9 84 28 152 41 68 14 147 32 174 40 74 23 87 22 75
-10 -12 -30 -12 -101 -1 -129 6 -14 10 3 12 52 6 89 14 100 62 77 38 -18 42
-27 53 -114 15 -117 91 -203 205 -230 42 -10 53 -9 96 10 57 25 117 80 144
133 15 29 36 128 39 188 0 12 53 30 62 21 5 -5 13 -38 18 -73 l8 -64 0 75 c0
41 0 78 1 83 2 12 24 8 97 -16z m-229 -102 c-7 -78 -23 -110 -76 -158 -86 -77
-194 -73 -281 11 -46 45 -48 49 -54 120 -4 41 -5 76 -3 78 2 3 38 -9 80 -26
95 -38 131 -37 237 4 47 19 89 34 94 35 5 1 6 -28 3 -64z m443 -325 c-18 -11
-22 -7 -14 14 5 13 10 14 18 6 8 -8 7 -13 -4 -20z m-23 -42 c-3 -8 -6 -5 -6 6
-1 11 2 17 5 13 3 -3 4 -12 1 -19z m279 -145 c15 -16 16 -53 10 -487 -6 -364
-11 -483 -22 -523 -16 -59 -26 -69 -47 -49 -8 8 -17 12 -21 9 -7 -7 -565 -5
-577 3 -4 2 -52 6 -106 9 -154 8 -227 16 -240 27 -9 7 -13 7 -13 -1 0 -8 -5
-9 -19 -1 -11 5 -30 9 -43 9 -19 -1 -70 6 -193 26 -73 12 -153 29 -173 36 -13
5 -32 9 -43 9 -11 0 -30 5 -42 12 -12 6 -29 13 -37 14 -103 14 -179 45 -227
93 l-32 32 -4 -73 c-1 -40 -4 134 -5 388 -2 347 1 463 10 472 9 9 225 12 909
12 830 0 899 -1 915 -17z m-1942 -278 c24 -19 48 -35 55 -35 7 0 11 -33 11
-106 l0 -106 -62 5 c-35 2 -52 2 -38 0 14 -2 42 -9 63 -14 l37 -10 0 -139 0
-140 -42 0 c-66 0 -119 19 -155 55 -29 29 -33 40 -33 85 0 28 11 95 24 148 13
53 27 115 30 137 4 22 14 72 23 112 13 61 18 70 30 58 7 -8 33 -30 57 -50z
m2161 -62 c9 -65 28 -150 41 -189 43 -125 29 -209 -40 -248 -34 -20 -123 -46
-156 -46 -6 0 -10 60 -10 144 l0 144 53 10 52 10 -52 1 -53 1 0 99 0 99 43 21
c24 12 54 32 67 46 13 14 27 25 30 25 4 0 15 -53 25 -117z m188 -440 c-7 -2
-19 -2 -25 0 -7 3 -2 5 12 5 14 0 19 -2 13 -5z"/>
<path d="M2119 2981 c-56 -11 -101 -43 -131 -91 -26 -43 -53 -127 -29 -88 15
23 55 34 201 57 92 15 128 25 138 38 13 19 9 58 -10 80 -11 14 -107 16 -169 4z"/>
<path d="M2817 2963 c-4 -3 -7 -23 -7 -43 0 -61 16 -67 175 -73 77 -3 151 -8
164 -12 l24 -8 -24 42 c-30 54 -71 79 -140 85 -143 14 -186 16 -192 9z"/>
<path d="M2082 2729 c-93 -46 -147 -155 -123 -245 12 -45 42 -88 71 -104 15
-8 13 1 -12 40 -40 65 -42 120 -5 181 58 98 157 132 250 86 l46 -24 -19 27
c-42 59 -132 76 -208 39z"/>
<path d="M2920 2739 c-33 -13 -100 -79 -100 -98 0 -11 5 -10 23 6 34 31 82 53
118 53 89 0 179 -89 187 -184 3 -47 0 -56 -38 -110 -39 -56 -40 -58 -13 -41
34 22 47 38 73 87 50 94 0 216 -112 272 -54 27 -96 32 -138 15z"/>
<path d="M2139 2653 c-78 -48 -87 -173 -18 -242 27 -27 38 -31 85 -31 57 0 74
10 109 64 25 38 23 116 -5 161 -38 62 -115 83 -171 48z m49 -59 c21 -38 -14
-77 -43 -48 -19 19 -19 29 1 48 20 20 31 20 42 0z m16 -174 c12 0 31 7 42 15
29 22 43 17 15 -5 -34 -29 -82 -26 -112 7 l-24 27 29 -22 c16 -12 38 -22 50
-22z"/>
<path d="M2862 2645 c-93 -78 -68 -238 43 -275 79 -26 155 45 155 145 0 121
-117 198 -198 130z m46 -72 c-3 -31 -34 -44 -44 -19 -9 24 3 46 26 46 17 0 21
-5 18 -27z m95 -116 c-28 -47 -63 -61 -108 -43 -19 8 -35 18 -35 21 0 3 9 1
19 -5 35 -18 71 -11 102 19 16 16 29 38 30 48 0 10 3 13 6 5 2 -7 -4 -27 -14
-45z"/>
<path d="M2090 2336 c26 -16 88 -19 130 -7 16 5 3 7 -40 7 -36 -1 -76 3 -90 7
l-25 8 25 -15z"/>
<path d="M3035 2340 c-11 -5 -47 -9 -80 -10 -56 -2 -58 -3 -28 -12 33 -11 117
5 129 23 6 10 5 10 -21 -1z"/>
<path d="M2484 2255 c-7 -18 1 -32 29 -47 20 -10 21 -10 9 5 -22 26 -5 37 55
37 53 0 55 -1 51 -25 -4 -21 -3 -23 13 -14 22 11 24 30 7 47 -18 18 -157 16
-164 -3z"/>
<path d="M2326 2070 c6 -6 45 -19 88 -30 146 -37 445 -15 400 30 -7 7 -25 4
-60 -12 -43 -20 -64 -23 -179 -22 -105 0 -142 4 -194 21 -35 12 -60 18 -55 13z"/>
<path d="M2786 1541 c-11 -17 -143 -73 -191 -81 -62 -10 -130 7 -182 44 -37
27 -37 27 5 -13 50 -46 86 -56 170 -48 64 5 158 46 193 83 12 13 20 24 16 24
-3 0 -8 -4 -11 -9z"/>
<path d="M2538 1603 c6 -2 18 -2 25 0 6 3 1 5 -13 5 -14 0 -19 -2 -12 -5z"/>
<path d="M2580 835 c-13 -14 -21 -27 -18 -30 7 -7 58 34 58 46 0 16 -16 10
-40 -16z"/>
<path d="M2454 775 c-42 -42 -29 -153 22 -196 10 -8 43 -14 86 -15 64 -2 70 0
93 28 l25 30 -20 33 c-24 39 -25 63 -4 94 25 35 5 45 -92 47 -79 2 -89 0 -110
-21z"/>
</g>
</svg>
